# Blender 3.1.0
# www.blender.org
mtllib LPipe.mtl
o LPipe
o Plane.001_Mesh.004
v 0.390019 0.172232 0.100000
v 0.250973 -0.000973 0.200000
v 0.390019 -0.000973 0.200000
v 0.217182 0.168904 -0.100000
v 0.390019 0.172232 0.100000
v 0.390019 0.172232 -0.100000
v 0.250973 -0.000973 -0.200000
v 0.390019 0.172232 -0.100000
v 0.390019 -0.000973 -0.200000
v 0.284764 -0.170850 -0.100000
v 0.390019 -0.000973 -0.200000
v 0.390019 -0.174178 -0.100000
v 0.284764 -0.170850 0.100000
v 0.390019 -0.174178 -0.100000
v 0.390019 -0.174178 0.100000
v 0.390019 -0.000973 0.200000
v 0.284764 -0.170850 0.100000
v 0.390019 -0.174178 0.100000
v 0.217182 0.168904 0.100000
v 0.074196 -0.074196 0.200000
v 0.250973 -0.000973 0.200000
v -0.048278 0.048278 -0.100000
v 0.217182 0.168904 0.100000
v 0.217182 0.168904 -0.100000
v 0.074196 -0.074196 -0.200000
v 0.217182 0.168904 -0.100000
v 0.250973 -0.000973 -0.200000
v 0.196671 -0.196671 -0.100000
v 0.250973 -0.000973 -0.200000
v 0.284764 -0.170850 -0.100000
v 0.196671 -0.196671 0.100000
v 0.284764 -0.170850 -0.100000
v 0.284764 -0.170850 0.100000
v 0.250973 -0.000973 0.200000
v 0.196671 -0.196671 0.100000
v 0.284764 -0.170850 0.100000
v -0.168904 -0.217182 0.100000
v 0.074196 -0.074196 0.200000
v -0.048278 0.048278 0.100000
v -0.168904 -0.217182 -0.100000
v -0.048278 0.048278 0.100000
v -0.048278 0.048278 -0.100000
v 0.074196 -0.074196 -0.200000
v -0.168904 -0.217182 -0.100000
v -0.048278 0.048278 -0.100000
v 0.196671 -0.196671 -0.100000
v 0.000973 -0.250973 -0.200000
v 0.074196 -0.074196 -0.200000
v 0.170850 -0.284764 0.100000
v 0.196671 -0.196671 -0.100000
v 0.196671 -0.196671 0.100000
v 0.000973 -0.250973 0.200000
v 0.196671 -0.196671 0.100000
v 0.074196 -0.074196 0.200000
v -0.172232 -0.398391 0.100000
v 0.000973 -0.250973 0.200000
v -0.168904 -0.217182 0.100000
v -0.172232 -0.398391 -0.100000
v -0.168904 -0.217182 0.100000
v -0.168904 -0.217182 -0.100000
v 0.000973 -0.250973 -0.200000
v -0.172232 -0.398391 -0.100000
v -0.168904 -0.217182 -0.100000
v 0.170850 -0.284764 -0.100000
v 0.000973 -0.398391 -0.200000
v 0.000973 -0.250973 -0.200000
v 0.174178 -0.398391 0.100000
v 0.170850 -0.284764 -0.100000
v 0.170850 -0.284764 0.100000
v 0.000973 -0.398391 0.200000
v 0.170850 -0.284764 0.100000
v 0.000973 -0.250973 0.200000
v 0.390019 0.172232 0.100000
v 0.390019 0.189553 -0.110000
v 0.390019 0.172232 -0.100000
v 0.390019 0.172232 0.100000
v 0.390019 -0.000973 0.220000
v 0.390019 0.189553 0.110000
v 0.390019 -0.174178 -0.100000
v 0.390019 -0.191499 0.110000
v 0.390019 -0.174178 0.100000
v 0.390019 -0.000973 -0.220000
v 0.390019 -0.191499 -0.110000
v 0.390019 -0.174178 0.100000
v 0.390019 -0.000973 0.220000
v 0.390019 -0.000973 0.200000
v 0.390019 -0.000973 -0.200000
v 0.390019 -0.191499 0.110000
v 0.490019 -0.000973 0.220000
v 0.390019 -0.000973 0.220000
v 0.390019 -0.191499 -0.110000
v 0.490019 -0.191499 0.110000
v 0.390019 -0.191499 0.110000
v 0.390019 0.189553 -0.110000
v 0.490019 -0.000973 -0.220000
v 0.390019 -0.000973 -0.220000
v 0.390019 -0.000973 0.220000
v 0.490019 0.189553 0.110000
v 0.390019 0.189553 0.110000
v 0.390019 -0.000973 -0.220000
v 0.490019 -0.191499 -0.110000
v 0.390019 -0.191499 -0.110000
v 0.390019 0.189553 0.110000
v 0.490019 0.189553 -0.110000
v 0.390019 0.189553 -0.110000
v -0.172232 -0.398391 -0.100000
v -0.189553 -0.398391 0.110000
v -0.172232 -0.398391 0.100000
v -0.172232 -0.398391 -0.100000
v 0.000973 -0.398391 -0.220000
v -0.189553 -0.398391 -0.110000
v 0.174178 -0.398391 -0.100000
v 0.000973 -0.398391 -0.220000
v 0.000973 -0.398391 -0.200000
v 0.174178 -0.398391 0.100000
v 0.000973 -0.398391 0.220000
v 0.191499 -0.398391 0.110000
v -0.172232 -0.398391 0.100000
v 0.000973 -0.398391 0.220000
v 0.000973 -0.398391 0.200000
v 0.191499 -0.398391 -0.110000
v 0.174178 -0.398391 -0.100000
v -0.189553 -0.398391 -0.110000
v -0.189553 -0.498391 0.110000
v -0.189553 -0.398391 0.110000
v -0.189553 -0.398391 0.110000
v 0.000973 -0.498391 0.220000
v 0.000973 -0.398391 0.220000
v 0.191499 -0.398391 -0.110000
v 0.000973 -0.498391 -0.220000
v 0.000973 -0.398391 -0.220000
v 0.000973 -0.398391 -0.220000
v -0.189553 -0.498391 -0.110000
v -0.189553 -0.398391 -0.110000
v 0.000973 -0.398391 0.220000
v 0.191499 -0.498391 0.110000
v 0.191499 -0.398391 0.110000
v 0.191499 -0.398391 0.110000
v 0.191499 -0.498391 -0.110000
v 0.191499 -0.398391 -0.110000
v 0.217182 0.168904 0.100000
v 0.217182 0.168904 0.100000
v 0.217182 0.168904 -0.100000
v 0.250973 -0.000973 -0.200000
v 0.284764 -0.170850 -0.100000
v 0.250973 -0.000973 0.200000
v -0.048278 0.048278 0.100000
v -0.048278 0.048278 0.100000
v -0.048278 0.048278 -0.100000
v 0.074196 -0.074196 -0.200000
v 0.196671 -0.196671 -0.100000
v 0.074196 -0.074196 0.200000
v 0.000973 -0.250973 0.200000
v -0.168904 -0.217182 0.100000
v 0.000973 -0.250973 -0.200000
v 0.170850 -0.284764 -0.100000
v 0.170850 -0.284764 -0.100000
v 0.170850 -0.284764 0.100000
v 0.000973 -0.398391 0.200000
v -0.172232 -0.398391 0.100000
v 0.000973 -0.398391 -0.200000
v 0.174178 -0.398391 -0.100000
v 0.174178 -0.398391 -0.100000
v 0.174178 -0.398391 0.100000
v 0.390019 0.189553 0.110000
v 0.390019 -0.000973 0.200000
v 0.390019 -0.191499 0.110000
v 0.490019 -0.191499 0.110000
v 0.490019 -0.191499 -0.110000
v 0.490019 0.189553 -0.110000
v 0.490019 -0.000973 0.220000
v 0.490019 -0.000973 -0.220000
v 0.490019 0.189553 0.110000
v -0.189553 -0.398391 -0.110000
v 0.000973 -0.398391 -0.200000
v 0.191499 -0.398391 -0.110000
v 0.000973 -0.398391 0.200000
v -0.189553 -0.398391 0.110000
v -0.189553 -0.498391 -0.110000
v -0.189553 -0.498391 0.110000
v 0.191499 -0.498391 -0.110000
v 0.000973 -0.498391 -0.220000
v 0.000973 -0.498391 0.220000
v 0.191499 -0.498391 0.110000
vn -0.0059 0.5036 0.8639
vn -0.0043 0.5026 0.8645
vn -0.0000 0.5000 0.8660
vn -0.0193 0.9998 -0.0000
vn -0.0043 0.5026 -0.8645
vn -0.0059 0.5036 -0.8639
vn -0.0000 0.5000 -0.8660
vn -0.0099 -0.5027 -0.8644
vn -0.0049 -0.5050 -0.8631
vn -0.0158 -0.4999 -0.8659
vn -0.0316 -0.9995 -0.0000
vn -0.0049 -0.5050 0.8631
vn -0.0099 -0.5027 0.8644
vn -0.0158 -0.4999 0.8659
vn -0.2057 0.4733 0.8565
vn -0.2085 0.4744 0.8552
vn -0.1941 0.4687 0.8618
vn -0.4137 0.9104 -0.0000
vn -0.2085 0.4744 -0.8552
vn -0.2057 0.4733 -0.8565
vn -0.1941 0.4687 -0.8618
vn 0.1696 -0.4853 -0.8577
vn 0.1845 -0.4873 -0.8535
vn 0.1411 -0.4812 -0.8652
vn 0.2813 -0.9596 -0.0000
vn 0.1845 -0.4873 0.8535
vn 0.1696 -0.4853 0.8577
vn 0.1411 -0.4812 0.8652
vn -0.4733 0.2057 0.8565
vn -0.4744 0.2085 0.8552
vn -0.4779 0.2171 0.8512
vn -0.9104 0.4137 -0.0000
vn -0.4744 0.2085 -0.8552
vn -0.4733 0.2057 -0.8565
vn -0.4779 0.2171 -0.8512
vn 0.4853 -0.1696 -0.8577
vn 0.4873 -0.1845 -0.8535
vn 0.4896 -0.2028 -0.8480
vn 0.9596 -0.2813 -0.0000
vn 0.4873 -0.1845 0.8535
vn 0.4853 -0.1696 0.8577
vn 0.4896 -0.2028 0.8480
vn -0.5035 0.0055 0.8640
vn -0.5027 0.0043 0.8644
vn -0.5059 0.0093 0.8625
vn -0.9998 0.0184 -0.0000
vn -0.5027 0.0043 -0.8644
vn -0.5035 0.0055 -0.8640
vn -0.5059 0.0093 -0.8625
vn 0.5028 0.0089 -0.8643
vn 0.5049 0.0049 -0.8632
vn 0.5073 -0.0000 -0.8618
vn 0.9996 0.0293 -0.0000
vn 0.5049 0.0049 0.8632
vn 0.5028 0.0089 0.8643
vn 0.5073 -0.0000 0.8618
vn -1.0000 -0.0000 -0.0000
vn -0.0000 -0.5000 0.8660
vn -0.0000 -1.0000 -0.0000
vn -0.0000 -0.5000 -0.8660
vn -0.0000 1.0000 -0.0000
vn -0.5000 -0.0000 0.8660
vn 0.5000 -0.0000 -0.8660
vn -0.5000 -0.0000 -0.8660
vn 0.5000 -0.0000 0.8660
vn 1.0000 -0.0000 -0.0000
vn -0.0097 0.5058 0.8626
vn -0.0097 0.5058 -0.8626
vn -0.0000 -0.5073 -0.8618
vn -0.0000 -0.5073 0.8618
vn -0.2171 0.4779 0.8512
vn -0.2171 0.4779 -0.8512
vn 0.2028 -0.4896 -0.8480
vn 0.2028 -0.4896 0.8480
vn -0.4687 0.1941 0.8618
vn -0.4687 0.1941 -0.8618
vn 0.4812 -0.1411 -0.8652
vn 0.4812 -0.1411 0.8652
vn 0.4999 0.0146 -0.8659
vn 0.4999 0.0146 0.8659
s 1
usemtl None
f 1//1 2//2 3//3
f 4//4 5//4 6//4
f 7//5 8//6 9//7
f 10//8 11//9 12//10
f 13//11 14//11 15//11
f 16//12 17//13 18//14
f 19//15 20//16 21//17
f 22//18 23//18 24//18
f 25//19 26//20 27//21
f 28//22 29//23 30//24
f 31//25 32//25 33//25
f 34//26 35//27 36//28
f 37//29 38//30 39//31
f 40//32 41//32 42//32
f 43//33 44//34 45//35
f 46//36 47//37 48//38
f 49//39 50//39 51//39
f 52//40 53//41 54//42
f 55//43 56//44 57//45
f 58//46 59//46 60//46
f 61//47 62//48 63//49
f 64//50 65//51 66//52
f 67//53 68//53 69//53
f 70//54 71//55 72//56
f 73//57 74//57 75//57
f 76//57 77//57 78//57
f 79//57 80//57 81//57
f 79//57 82//57 83//57
f 84//57 85//57 86//57
f 75//57 82//57 87//57
f 88//58 89//58 90//58
f 91//59 92//59 93//59
f 94//7 95//7 96//7
f 97//3 98//3 99//3
f 100//60 101//60 102//60
f 103//61 104//61 105//61
f 106//61 107//61 108//61
f 109//61 110//61 111//61
f 112//61 113//61 114//61
f 115//61 116//61 117//61
f 118//61 119//61 120//61
f 115//61 121//61 122//61
f 123//57 124//57 125//57
f 126//62 127//62 128//62
f 129//63 130//63 131//63
f 132//64 133//64 134//64
f 135//65 136//65 137//65
f 138//66 139//66 140//66
f 1//1 141//67 2//2
f 4//4 142//4 5//4
f 7//5 143//68 8//6
f 10//8 144//69 11//9
f 13//11 145//11 14//11
f 16//12 146//70 17//13
f 19//15 147//71 20//16
f 22//18 148//18 23//18
f 25//19 149//72 26//20
f 28//22 150//73 29//23
f 31//25 151//25 32//25
f 34//26 152//74 35//27
f 37//29 153//75 38//30
f 40//32 154//32 41//32
f 43//33 155//76 44//34
f 46//36 156//77 47//37
f 49//39 157//39 50//39
f 52//40 158//78 53//41
f 55//43 159//62 56//44
f 58//46 160//46 59//46
f 61//47 161//64 62//48
f 64//50 162//79 65//51
f 67//53 163//53 68//53
f 70//54 164//80 71//55
f 73//57 165//57 74//57
f 76//57 166//57 77//57
f 79//57 83//57 80//57
f 79//57 87//57 82//57
f 84//57 167//57 85//57
f 75//57 74//57 82//57
f 88//58 168//58 89//58
f 91//59 169//59 92//59
f 94//7 170//7 95//7
f 97//3 171//3 98//3
f 100//60 172//60 101//60
f 103//61 173//61 104//61
f 106//61 174//61 107//61
f 109//61 175//61 110//61
f 112//61 176//61 113//61
f 115//61 177//61 116//61
f 118//61 178//61 119//61
f 115//61 117//61 121//61
f 123//57 179//57 124//57
f 126//62 180//62 127//62
f 129//63 181//63 130//63
f 132//64 182//64 133//64
f 135//65 183//65 136//65
f 138//66 184//66 139//66
o IPipe
