# Blender 3.1.1
# www.blender.org
mtllib Ring.mtl
o Circle
v 0.000000 -0.020179 -0.120000
v -0.103923 -0.020179 -0.060000
v -0.103923 -0.020179 0.060000
v 0.000000 -0.020179 0.120000
v 0.103923 -0.020179 0.060000
v 0.103923 -0.020179 -0.060000
v 0.000000 -0.020179 -0.120000
v -0.103923 -0.020179 -0.060000
v -0.103923 -0.020179 0.060000
v 0.000000 -0.020179 0.120000
v 0.103923 -0.020179 0.060000
v 0.103923 -0.020179 -0.060000
v 0.000000 0.020370 -0.120000
v -0.103923 0.020370 -0.060000
v -0.103923 0.020370 0.060000
v 0.000000 0.020370 0.120000
v 0.103923 0.020370 0.060000
v 0.103923 0.020370 -0.060000
vn -0.0000 -0.0000 1.0000
vn -0.0000 -1.0000 -0.0000
vn -0.0000 1.0000 -0.0000
vn -0.8660 -0.0000 -0.5000
vn 0.8660 -0.0000 -0.5000
vn 0.8660 -0.0000 0.5000
vn -0.8660 -0.0000 0.5000
vn -0.0000 -0.0000 -1.0000
vn -0.0076 0.1041 0.9945
vn -0.9078 0.0291 0.4184
vn -0.0000 -0.3341 0.9426
vn -0.8575 0.1041 -0.5038
vn 0.0915 0.0291 -0.9954
vn -0.8163 -0.3341 -0.4713
vn 0.0076 0.1041 -0.9945
vn 0.9078 0.0291 -0.4184
vn -0.0000 -0.3341 -0.9426
vn 0.8575 0.1041 0.5038
vn -0.0915 0.0291 0.9954
vn 0.8163 -0.3341 0.4713
vn -0.8651 0.1041 0.4907
vn -0.8163 0.0291 -0.5769
vn -0.8163 -0.3341 0.4713
vn 0.8651 0.1041 -0.4907
vn 0.8163 0.0291 0.5769
vn 0.8163 -0.3341 -0.4713
vn -0.1034 -0.3274 0.9392
vn -0.8651 0.0471 0.4995
vn -0.7680 -0.4013 0.4991
vn -0.7617 -0.3274 -0.5591
vn -0.0000 0.0471 -0.9989
vn -0.0483 -0.4013 -0.9147
vn 0.1034 -0.3274 -0.9392
vn 0.8651 0.0471 -0.4995
vn 0.7680 -0.4013 -0.4991
vn 0.7617 -0.3274 0.5591
vn -0.0000 0.0471 0.9989
vn 0.0483 -0.4013 0.9147
vn -0.8651 -0.3274 0.3801
vn -0.8651 0.0471 -0.4994
vn -0.8163 -0.4013 -0.4156
vn 0.8651 -0.3274 -0.3801
vn 0.8651 0.0471 0.4994
vn 0.8163 -0.4013 0.4156
vt 0.000000 0.000000
vt 0.000000 0.000000
vt 0.000000 0.000000
vt 0.000000 0.000000
vt 0.000000 0.000000
vt 0.000000 0.000000
vt 0.000000 0.000000
vt 0.000000 0.000000
vt 0.000000 0.000000
vt 0.000000 0.000000
vt 0.000000 0.000000
vt 0.000000 0.000000
vt 0.000000 0.000000
vt 0.000000 0.000000
vt 0.000000 0.000000
vt 0.000000 0.000000
vt 0.000000 0.000000
vt 0.000000 0.000000
s 0
f 6/6/1 11/11/2 5/5/3
f 4/4/4 9/9/2 3/3/3
f 2/2/5 7/7/2 1/1/3
f 1/1/6 12/12/2 6/6/3
f 5/5/7 10/10/2 4/4/3
f 3/3/8 8/8/2 2/2/3
f 16/16/9 9/9/10 10/10/11
f 14/14/12 7/7/13 8/8/14
f 13/13/15 12/12/16 7/7/17
f 17/17/18 10/10/19 11/11/20
f 15/15/21 8/8/22 9/9/23
f 18/18/24 11/11/25 12/12/26
f 6/6/2 12/12/3 11/11/8
f 4/4/2 10/10/3 9/9/6
f 2/2/2 8/8/3 7/7/7
f 1/1/2 7/7/3 12/12/4
f 5/5/2 11/11/3 10/10/5
f 3/3/2 9/9/3 8/8/1
f 16/16/27 15/15/28 9/9/29
f 14/14/30 13/13/31 7/7/32
f 13/13/33 18/18/34 12/12/35
f 17/17/36 16/16/37 10/10/38
f 15/15/39 14/14/40 8/8/41
f 18/18/42 17/17/43 11/11/44
