# Blender 3.1.2
# www.blender.org
mtllib Cube16x16.mtl
o Cube
v 20.000000 20.000000 -20.000000
v 20.000000 -20.000000 -20.000000
v 20.000000 20.000000 20.000000
v 20.000000 -20.000000 20.000000
v -20.000000 20.000000 -20.000000
v -20.000000 -20.000000 -20.000000
v -20.000000 20.000000 20.000000
v -20.000000 -20.000000 20.000000
vn -0.0000 1.0000 -0.0000
vn -0.0000 -0.0000 1.0000
vn -1.0000 -0.0000 -0.0000
vn -0.0000 -1.0000 -0.0000
vn 1.0000 -0.0000 -0.0000
vn -0.0000 -0.0000 -1.0000
vt 0.375000 0.437500
vt 0.625000 1.000000
vt -0.000000 1.000000
vt 0.625000 0.125000
vt 0.625000 0.750000
vt -0.000000 0.750000
vt 0.375000 0.687500
vt 0.250000 0.375000
vt 0.375000 1.000000
vt 0.250000 0.125000
vt 0.625000 0.375000
vt 0.375000 0.750000
vt 0.625000 0.437500
vt 0.000000 0.687500
vt 0.250000 1.000000
vt 0.000000 0.437500
vt 0.375000 0.125000
vt 0.250000 0.750000
vt 0.625000 0.687500
vt -0.000000 0.375000
vt 0.250000 0.687500
vt -0.000000 0.125000
vt 0.250000 0.437500
vt 0.375000 0.375000
s 0
usemtl Material
f 1/1/1 5/13/1 7/19/1 3/7/1
f 4/10/2 3/8/2 7/20/2 8/22/2
f 8/23/3 7/21/3 5/14/3 6/16/3
f 6/17/4 2/4/4 4/11/4 8/24/4
f 2/5/5 1/2/5 3/9/5 4/12/5
f 6/18/6 5/15/6 1/3/6 2/6/6
