# Blender v2.78 (sub 0) OBJ File: 'Free3D-LP-Pipes.blend'
# www.blender.org
mtllib Free3D-LP-Pipes.mtl
o Plane.001_Mesh.004
v -1.100000 1.173205 0.100000
v -1.100000 1.173205 -0.100000
v -1.100000 1.000000 -0.200000
v -1.100000 0.826795 -0.100000
v -1.100000 0.826795 0.100000
v -1.100000 1.000000 0.200000
v -1.783791 1.169877 0.100000
v -1.783791 1.169877 -0.100000
v -1.750000 1.000000 -0.200000
v -1.716209 0.830123 -0.100000
v -1.716209 0.830123 0.100000
v -1.750000 1.000000 0.200000
v -2.049251 1.049251 0.100000
v -2.049251 1.049251 -0.100000
v -1.926777 0.926777 -0.200000
v -1.804302 0.804302 -0.100000
v -1.804302 0.804302 0.100000
v -1.926777 0.926777 0.200000
v -2.169877 0.783791 0.100000
v -2.169877 0.783791 -0.100000
v -2.000000 0.750000 -0.200000
v -1.830123 0.716209 -0.100000
v -1.830123 0.716209 0.100000
v -2.000000 0.750000 0.200000
v -2.173205 0.100000 0.100000
v -2.173205 0.100000 -0.100000
v -2.000000 0.100000 -0.200000
v -1.826795 0.100000 -0.100000
v -1.826795 0.100000 0.100000
v -2.000000 0.100000 0.200000
v -1.100000 1.190526 0.110000
v -1.100000 1.190526 -0.110000
v -1.100000 1.000000 -0.220000
v -1.100000 0.809474 -0.110000
v -1.100000 0.809474 0.110000
v -1.100000 1.000000 0.220000
v -1.000000 1.190526 0.110000
v -1.000000 1.190526 -0.110000
v -1.000000 1.000000 -0.220000
v -1.000000 0.809474 -0.110000
v -1.000000 0.809474 0.110000
v -1.000000 1.000000 0.220000
v -2.190526 0.100000 0.110000
v -2.190526 0.100000 -0.110000
v -2.000000 0.100000 -0.220000
v -1.809474 0.100000 -0.110000
v -1.809474 0.100000 0.110000
v -2.000000 0.100000 0.220000
v -2.190526 0.000000 0.110000
v -2.190526 -0.000000 -0.110000
v -2.000000 -0.000000 -0.220000
v -1.809474 -0.000000 -0.110000
v -1.809474 0.000000 0.110000
v -2.000000 0.000000 0.220000
v -2.049251 1.049251 0.100000
v -2.049251 1.049251 0.100000
v -2.049251 1.049251 0.100000
v -1.926777 0.926777 0.200000
v -1.926777 0.926777 0.200000
v -1.926777 0.926777 0.200000
v -1.830123 0.716209 0.100000
v -1.830123 0.716209 0.100000
v -1.830123 0.716209 0.100000
v -2.000000 0.750000 0.200000
v -2.000000 0.750000 0.200000
v -2.000000 0.750000 0.200000
v -1.100000 1.173205 0.100000
v -1.100000 1.173205 0.100000
v -1.100000 1.173205 0.100000
v -1.783791 1.169877 0.100000
v -1.783791 1.169877 0.100000
v -1.783791 1.169877 0.100000
v -2.173205 0.100000 -0.100000
v -2.173205 0.100000 -0.100000
v -2.173205 0.100000 -0.100000
v -2.000000 0.100000 -0.200000
v -2.000000 0.100000 -0.200000
v -2.000000 0.100000 -0.200000
v -1.926777 0.926777 -0.200000
v -1.926777 0.926777 -0.200000
v -1.926777 0.926777 -0.200000
v -2.000000 0.750000 -0.200000
v -2.000000 0.750000 -0.200000
v -2.000000 0.750000 -0.200000
v -1.100000 1.000000 -0.200000
v -1.100000 1.000000 -0.200000
v -1.100000 0.826795 -0.100000
v -1.100000 0.826795 -0.100000
v -1.826795 0.100000 0.100000
v -1.826795 0.100000 0.100000
v -1.716209 0.830123 0.100000
v -1.716209 0.830123 0.100000
v -1.716209 0.830123 0.100000
v -1.804302 0.804302 0.100000
v -1.804302 0.804302 0.100000
v -1.804302 0.804302 0.100000
v -1.100000 1.173205 -0.100000
v -1.100000 1.173205 -0.100000
v -1.783791 1.169877 -0.100000
v -1.783791 1.169877 -0.100000
v -1.783791 1.169877 -0.100000
v -2.049251 1.049251 -0.100000
v -2.049251 1.049251 -0.100000
v -2.049251 1.049251 -0.100000
v -2.169877 0.783791 -0.100000
v -2.169877 0.783791 -0.100000
v -2.169877 0.783791 -0.100000
v -1.100000 0.826795 0.100000
v -1.100000 0.826795 0.100000
v -1.100000 0.826795 0.100000
v -1.716209 0.830123 -0.100000
v -1.716209 0.830123 -0.100000
v -1.716209 0.830123 -0.100000
v -1.100000 1.000000 0.200000
v -1.100000 1.000000 0.200000
v -1.100000 1.000000 0.200000
v -1.750000 1.000000 0.200000
v -1.750000 1.000000 0.200000
v -1.750000 1.000000 0.200000
v -1.750000 1.000000 -0.200000
v -1.750000 1.000000 -0.200000
v -1.750000 1.000000 -0.200000
v -1.830123 0.716209 -0.100000
v -1.830123 0.716209 -0.100000
v -1.830123 0.716209 -0.100000
v -1.804302 0.804302 -0.100000
v -1.804302 0.804302 -0.100000
v -1.804302 0.804302 -0.100000
v -2.173205 0.100000 0.100000
v -2.173205 0.100000 0.100000
v -2.173205 0.100000 0.100000
v -2.169877 0.783791 0.100000
v -2.169877 0.783791 0.100000
v -2.169877 0.783791 0.100000
v -1.826795 0.100000 -0.100000
v -1.826795 0.100000 -0.100000
v -1.826795 0.100000 -0.100000
v -2.000000 0.100000 0.200000
v -2.000000 0.100000 0.200000
v -2.000000 0.100000 0.200000
v -1.100000 1.000000 -0.220000
v -1.100000 1.000000 -0.220000
v -1.100000 0.809474 -0.110000
v -1.100000 0.809474 -0.110000
v -1.100000 0.809474 0.110000
v -1.100000 0.809474 0.110000
v -1.100000 0.809474 0.110000
v -1.100000 1.190526 0.110000
v -1.100000 1.190526 0.110000
v -1.100000 1.190526 0.110000
v -1.100000 1.000000 0.220000
v -1.100000 1.000000 0.220000
v -1.100000 1.000000 0.220000
v -1.100000 1.190526 -0.110000
v -1.100000 1.190526 -0.110000
v -1.000000 0.809474 0.110000
v -1.000000 1.000000 0.220000
v -1.000000 0.809474 -0.110000
v -1.000000 1.190526 -0.110000
v -1.000000 1.000000 -0.220000
v -1.000000 1.190526 0.110000
v -2.190526 0.100000 -0.110000
v -2.190526 0.100000 -0.110000
v -2.190526 0.100000 -0.110000
v -2.000000 0.100000 -0.220000
v -2.000000 0.100000 -0.220000
v -2.000000 0.100000 -0.220000
v -2.190526 0.100000 0.110000
v -2.190526 0.100000 0.110000
v -2.190526 0.100000 0.110000
v -1.809474 0.100000 -0.110000
v -1.809474 0.100000 -0.110000
v -1.809474 0.100000 -0.110000
v -1.809474 0.100000 0.110000
v -1.809474 0.100000 0.110000
v -2.000000 0.100000 0.220000
v -2.000000 0.100000 0.220000
v -2.000000 0.100000 0.220000
v -2.190526 -0.000000 -0.110000
v -2.190526 0.000000 0.110000
v -2.000000 0.000000 0.220000
v -1.809474 -0.000000 -0.110000
v -2.000000 -0.000000 -0.220000
v -1.809474 0.000000 0.110000
vn -0.0013 0.5035 0.8640
vn -0.0049 1.0000 0.0000
vn -0.0013 0.5035 -0.8640
vn -0.0013 -0.5037 -0.8639
vn -0.0054 -1.0000 -0.0000
vn -0.0013 -0.5037 0.8639
vn -0.2079 0.4742 0.8555
vn -0.4137 0.9104 0.0000
vn -0.2079 0.4742 -0.8555
vn 0.1821 -0.4870 -0.8542
vn 0.2813 -0.9596 0.0000
vn 0.1821 -0.4870 0.8542
vn -0.4742 0.2079 0.8555
vn -0.9104 0.4137 0.0000
vn -0.4742 0.2079 -0.8555
vn 0.4870 -0.1821 -0.8542
vn 0.9596 -0.2813 0.0000
vn 0.4870 -0.1821 0.8542
vn -0.5035 0.0013 0.8640
vn -1.0000 0.0049 0.0000
vn -0.5035 0.0013 -0.8640
vn 0.5037 0.0013 -0.8639
vn 1.0000 0.0054 -0.0000
vn 0.5037 0.0013 0.8639
vn -1.0000 0.0000 0.0000
vn 0.0000 -0.5000 0.8660
vn 0.0000 -1.0000 -0.0000
vn 0.0000 0.5000 -0.8660
vn 0.0000 0.5000 0.8660
vn 0.0000 -0.5000 -0.8660
vn 0.0000 1.0000 0.0000
vn -0.5000 0.0000 0.8660
vn 0.5000 0.0000 -0.8660
vn -0.5000 0.0000 -0.8660
vn 0.5000 0.0000 0.8660
vn 1.0000 0.0000 0.0000
usemtl None
s 1
f 67//1 70//1 118//1 114//1
f 97//2 99//2 71//2 68//2
f 86//3 120//3 101//3 98//3
f 87//4 112//4 121//4 85//4
f 108//5 92//5 111//5 88//5
f 115//6 119//6 93//6 109//6
f 72//7 55//7 58//7 117//7
f 100//8 102//8 56//8 7//8
f 122//9 81//9 103//9 8//9
f 113//10 126//10 80//10 9//10
f 91//11 94//11 127//11 10//11
f 12//12 59//12 95//12 11//12
f 57//13 134//13 65//13 60//13
f 104//14 106//14 132//14 13//14
f 79//15 82//15 107//15 14//15
f 128//16 124//16 83//16 15//16
f 96//17 63//17 123//17 16//17
f 18//18 64//18 61//18 17//18
f 133//19 130//19 138//19 66//19
f 105//20 74//20 129//20 19//20
f 84//21 76//21 73//21 20//21
f 125//22 135//22 77//22 21//22
f 62//23 89//23 136//23 22//23
f 24//24 139//24 90//24 23//24
f 2//25 69//25 149//25 154//25
f 1//25 116//25 151//25 148//25
f 110//25 4//25 143//25 145//25
f 4//25 3//25 141//25 143//25
f 6//25 5//25 146//25 152//25
f 3//25 2//25 154//25 141//25
f 153//26 147//26 41//26 42//26
f 35//27 144//27 40//27 156//27
f 142//28 155//28 159//28 39//28
f 150//29 36//29 157//29 161//29
f 34//30 33//30 160//30 158//30
f 32//31 31//31 37//31 38//31
f 131//31 75//31 163//31 168//31
f 26//31 78//31 165//31 162//31
f 27//31 137//31 171//31 166//31
f 29//31 140//31 177//31 174//31
f 30//31 25//31 169//31 176//31
f 28//31 29//31 174//31 172//31
f 170//25 164//25 50//25 180//25
f 178//32 43//32 49//32 181//32
f 167//33 173//33 182//33 51//33
f 44//34 45//34 183//34 179//34
f 175//35 48//35 54//35 53//35
f 46//36 47//36 184//36 52//36
o Plane.002_Mesh.010
v 1.900000 0.100000 0.173205
v 2.100000 0.100000 0.173205
v 2.200000 0.100000 -0.000000
v 2.100000 0.100000 -0.173205
v 1.900000 0.100000 -0.173205
v 1.800000 0.100000 0.000000
v 1.900000 2.900000 0.173205
v 2.100000 2.900000 0.173205
v 2.200000 2.900000 -0.000000
v 2.100000 2.900000 -0.173206
v 1.900000 2.900000 -0.173206
v 1.800000 2.900000 -0.000000
v 1.890000 2.900000 0.190525
v 2.110000 2.900000 0.190525
v 2.220000 2.900000 -0.000000
v 2.110000 2.900000 -0.190526
v 1.890000 2.900000 -0.190526
v 1.780000 2.900000 -0.000000
v 1.890000 3.000000 0.190525
v 2.110000 3.000000 0.190525
v 2.220000 3.000000 -0.000000
v 2.110000 3.000000 -0.190526
v 1.890000 3.000000 -0.190526
v 1.780000 3.000000 -0.000000
v 1.890000 0.100000 0.190526
v 2.110000 0.100000 0.190526
v 2.220000 0.100000 -0.000000
v 2.110000 0.100000 -0.190526
v 1.890000 0.100000 -0.190526
v 1.780000 0.100000 0.000000
v 1.890000 0.000000 0.190526
v 2.110000 0.000000 0.190526
v 2.220000 -0.000000 -0.000000
v 2.110000 -0.000000 -0.190526
v 1.890000 -0.000000 -0.190526
v 1.780000 0.000000 0.000000
v 2.100000 2.900000 0.173205
v 2.100000 2.900000 0.173205
v 2.200000 2.900000 -0.000000
v 2.200000 2.900000 -0.000000
v 1.900000 2.900000 -0.173206
v 1.900000 2.900000 -0.173206
v 1.800000 2.900000 -0.000000
v 1.800000 2.900000 -0.000000
v 2.200000 0.100000 -0.000000
v 2.200000 0.100000 -0.000000
v 1.900000 0.100000 0.173205
v 1.900000 0.100000 0.173205
v 1.800000 0.100000 0.000000
v 1.800000 0.100000 0.000000
v 1.900000 2.900000 0.173205
v 1.900000 2.900000 0.173205
v 2.100000 0.100000 -0.173205
v 2.100000 0.100000 -0.173205
v 1.900000 0.100000 -0.173205
v 1.900000 0.100000 -0.173205
v 2.100000 2.900000 -0.173206
v 2.100000 2.900000 -0.173206
v 2.100000 0.100000 0.173205
v 2.100000 0.100000 0.173205
v 2.110000 2.900000 0.190525
v 2.110000 2.900000 0.190525
v 2.220000 2.900000 -0.000000
v 2.220000 2.900000 -0.000000
v 1.890000 2.900000 -0.190526
v 1.890000 2.900000 -0.190526
v 1.780000 2.900000 -0.000000
v 1.780000 2.900000 -0.000000
v 1.890000 2.900000 0.190525
v 1.890000 2.900000 0.190525
v 2.110000 2.900000 -0.190526
v 2.110000 2.900000 -0.190526
v 2.110000 3.000000 -0.190526
v 2.220000 3.000000 -0.000000
v 1.890000 3.000000 0.190525
v 1.780000 3.000000 -0.000000
v 2.110000 3.000000 0.190525
v 1.890000 3.000000 -0.190526
v 1.890000 0.100000 0.190526
v 1.890000 0.100000 0.190526
v 1.780000 0.100000 0.000000
v 1.780000 0.100000 0.000000
v 2.220000 0.100000 -0.000000
v 2.220000 0.100000 -0.000000
v 2.110000 0.100000 -0.190526
v 2.110000 0.100000 -0.190526
v 1.890000 0.100000 -0.190526
v 1.890000 0.100000 -0.190526
v 2.110000 0.100000 0.190526
v 2.110000 0.100000 0.190526
v 1.890000 -0.000000 -0.190526
v 1.780000 0.000000 0.000000
v 2.110000 -0.000000 -0.190526
v 1.890000 0.000000 0.190526
v 2.110000 0.000000 0.190526
v 2.220000 -0.000000 -0.000000
vn -0.8660 0.0000 0.5000
vn 0.0000 0.0000 1.0000
vn 0.8660 0.0000 0.5000
vn 0.8660 -0.0000 -0.5000
vn 0.0000 -0.0000 -1.0000
vn -0.8660 -0.0000 -0.5000
vn 0.0000 -1.0000 0.0000
vn 0.0000 1.0000 0.0000
usemtl None
s 1
f 231//37 235//37 228//37 233//37
f 244//38 222//38 236//38 232//38
f 229//39 223//39 221//39 243//39
f 237//40 242//40 224//40 230//40
f 239//41 226//41 241//41 238//41
f 234//42 227//42 225//42 240//42
f 192//43 193//43 247//43 245//43
f 194//43 195//43 249//43 255//43
f 193//43 194//43 255//43 247//43
f 195//43 196//43 251//43 249//43
f 191//43 192//43 245//43 253//43
f 196//43 191//43 253//43 251//43
f 248//40 256//40 206//40 205//40
f 252//37 254//37 259//37 208//37
f 246//39 199//39 258//39 261//39
f 197//38 198//38 204//38 203//38
f 200//41 250//41 207//41 257//41
f 201//42 202//42 260//42 262//42
f 190//44 189//44 271//44 265//44
f 188//44 187//44 267//44 269//44
f 185//44 190//44 265//44 263//44
f 187//44 186//44 273//44 267//44
f 189//44 188//44 269//44 271//44
f 186//44 185//44 263//44 273//44
f 266//42 272//42 219//42 220//42
f 213//41 270//41 218//41 275//41
f 264//37 214//37 276//37 278//37
f 274//38 209//38 215//38 216//38
f 268//39 210//39 279//39 217//39
f 212//40 211//40 280//40 277//40
o Plane.000_Mesh.009
v 0.900000 0.100000 0.173205
v 1.100000 0.100000 0.173205
v 1.200000 0.100000 -0.000000
v 1.100000 0.100000 -0.173205
v 0.900000 0.100000 -0.173205
v 0.800000 0.100000 0.000000
v 0.900000 1.900000 0.173205
v 1.100000 1.900000 0.173205
v 1.200000 1.900000 -0.000000
v 1.100000 1.900000 -0.173205
v 0.900000 1.900000 -0.173205
v 0.800000 1.900000 -0.000000
v 0.890000 1.900000 0.190525
v 1.110000 1.900000 0.190525
v 1.220000 1.900000 -0.000000
v 1.110000 1.900000 -0.190526
v 0.890000 1.900000 -0.190526
v 0.780000 1.900000 -0.000000
v 0.890000 2.000000 0.190525
v 1.110000 2.000000 0.190525
v 1.220000 2.000000 -0.000000
v 1.110000 2.000000 -0.190526
v 0.890000 2.000000 -0.190526
v 0.780000 2.000000 -0.000000
v 0.890000 0.100000 0.190526
v 1.110000 0.100000 0.190526
v 1.220000 0.100000 -0.000000
v 1.110000 0.100000 -0.190526
v 0.890000 0.100000 -0.190526
v 0.780000 0.100000 0.000000
v 0.890000 0.000000 0.190526
v 1.110000 0.000000 0.190526
v 1.220000 -0.000000 -0.000000
v 1.110000 -0.000000 -0.190526
v 0.890000 -0.000000 -0.190526
v 0.780000 0.000000 0.000000
v 1.100000 1.900000 0.173205
v 1.100000 1.900000 0.173205
v 1.200000 1.900000 -0.000000
v 1.200000 1.900000 -0.000000
v 0.900000 1.900000 -0.173205
v 0.900000 1.900000 -0.173205
v 0.800000 1.900000 -0.000000
v 0.800000 1.900000 -0.000000
v 1.200000 0.100000 -0.000000
v 1.200000 0.100000 -0.000000
v 0.900000 0.100000 0.173205
v 0.900000 0.100000 0.173205
v 0.800000 0.100000 0.000000
v 0.800000 0.100000 0.000000
v 0.900000 1.900000 0.173205
v 0.900000 1.900000 0.173205
v 1.100000 0.100000 -0.173205
v 1.100000 0.100000 -0.173205
v 0.900000 0.100000 -0.173205
v 0.900000 0.100000 -0.173205
v 1.100000 1.900000 -0.173205
v 1.100000 1.900000 -0.173205
v 1.100000 0.100000 0.173205
v 1.100000 0.100000 0.173205
v 1.110000 1.900000 0.190525
v 1.110000 1.900000 0.190525
v 1.220000 1.900000 -0.000000
v 1.220000 1.900000 -0.000000
v 0.890000 1.900000 -0.190526
v 0.890000 1.900000 -0.190526
v 0.780000 1.900000 -0.000000
v 0.780000 1.900000 -0.000000
v 0.890000 1.900000 0.190525
v 0.890000 1.900000 0.190525
v 1.110000 1.900000 -0.190526
v 1.110000 1.900000 -0.190526
v 1.110000 2.000000 -0.190526
v 1.220000 2.000000 -0.000000
v 0.890000 2.000000 0.190525
v 0.780000 2.000000 -0.000000
v 1.110000 2.000000 0.190525
v 0.890000 2.000000 -0.190526
v 0.890000 0.100000 0.190526
v 0.890000 0.100000 0.190526
v 0.780000 0.100000 0.000000
v 0.780000 0.100000 0.000000
v 1.220000 0.100000 -0.000000
v 1.220000 0.100000 -0.000000
v 1.110000 0.100000 -0.190526
v 1.110000 0.100000 -0.190526
v 0.890000 0.100000 -0.190526
v 0.890000 0.100000 -0.190526
v 1.110000 0.100000 0.190526
v 1.110000 0.100000 0.190526
v 0.890000 -0.000000 -0.190526
v 0.780000 0.000000 0.000000
v 1.110000 -0.000000 -0.190526
v 0.890000 0.000000 0.190526
v 1.110000 0.000000 0.190526
v 1.220000 -0.000000 -0.000000
vn -0.8660 0.0000 0.5000
vn 0.0000 0.0000 1.0000
vn 0.8660 0.0000 0.5000
vn 0.8660 -0.0000 -0.5000
vn 0.0000 -0.0000 -1.0000
vn -0.8660 -0.0000 -0.5000
vn 0.0000 -1.0000 -0.0000
vn -0.0000 1.0000 0.0000
usemtl None
s 1
f 327//45 331//45 324//45 329//45
f 340//46 318//46 332//46 328//46
f 325//47 319//47 317//47 339//47
f 333//48 338//48 320//48 326//48
f 335//49 322//49 337//49 334//49
f 330//50 323//50 321//50 336//50
f 288//51 289//51 343//51 341//51
f 290//51 291//51 345//51 351//51
f 289//51 290//51 351//51 343//51
f 291//51 292//51 347//51 345//51
f 287//51 288//51 341//51 349//51
f 292//51 287//51 349//51 347//51
f 344//48 352//48 302//48 301//48
f 348//45 350//45 355//45 304//45
f 342//47 295//47 354//47 357//47
f 293//46 294//46 300//46 299//46
f 296//49 346//49 303//49 353//49
f 297//50 298//50 356//50 358//50
f 286//52 285//52 367//52 361//52
f 284//52 283//52 363//52 365//52
f 281//52 286//52 361//52 359//52
f 283//52 282//52 369//52 363//52
f 285//52 284//52 365//52 367//52
f 282//52 281//52 359//52 369//52
f 362//50 368//50 315//50 316//50
f 309//49 366//49 314//49 371//49
f 360//45 310//45 372//45 374//45
f 370//46 305//46 311//46 312//46
f 364//47 306//47 375//47 313//47
f 308//48 307//48 376//48 373//48
o Plane.003_Mesh.007
v -0.100000 0.100000 0.173205
v 0.100000 0.100000 0.173205
v 0.200000 0.100000 -0.000000
v 0.100000 0.100000 -0.173205
v -0.100000 0.100000 -0.173205
v -0.200000 0.100000 0.000000
v -0.100000 0.900000 0.173205
v 0.100000 0.900000 0.173205
v 0.200000 0.900000 -0.000000
v 0.100000 0.900000 -0.173205
v -0.100000 0.900000 -0.173205
v -0.200000 0.900000 -0.000000
v -0.110000 0.900000 0.190525
v 0.110000 0.900000 0.190525
v 0.220000 0.900000 -0.000000
v 0.110000 0.900000 -0.190526
v -0.110000 0.900000 -0.190526
v -0.220000 0.900000 -0.000000
v -0.110000 1.000000 0.190525
v 0.110000 1.000000 0.190525
v 0.220000 1.000000 -0.000000
v 0.110000 1.000000 -0.190526
v -0.110000 1.000000 -0.190526
v -0.220000 1.000000 -0.000000
v -0.110000 0.100000 0.190526
v 0.110000 0.100000 0.190526
v 0.220000 0.100000 -0.000000
v 0.110000 0.100000 -0.190526
v -0.110000 0.100000 -0.190526
v -0.220000 0.100000 0.000000
v -0.110000 0.000000 0.190526
v 0.110000 0.000000 0.190526
v 0.220000 -0.000000 -0.000000
v 0.110000 -0.000000 -0.190526
v -0.110000 -0.000000 -0.190526
v -0.220000 0.000000 0.000000
v 0.100000 0.900000 0.173205
v 0.100000 0.900000 0.173205
v 0.200000 0.900000 -0.000000
v 0.200000 0.900000 -0.000000
v -0.100000 0.900000 -0.173205
v -0.100000 0.900000 -0.173205
v -0.200000 0.900000 -0.000000
v -0.200000 0.900000 -0.000000
v 0.200000 0.100000 -0.000000
v 0.200000 0.100000 -0.000000
v -0.100000 0.100000 0.173205
v -0.100000 0.100000 0.173205
v -0.200000 0.100000 0.000000
v -0.200000 0.100000 0.000000
v -0.100000 0.900000 0.173205
v -0.100000 0.900000 0.173205
v 0.100000 0.100000 -0.173205
v 0.100000 0.100000 -0.173205
v -0.100000 0.100000 -0.173205
v -0.100000 0.100000 -0.173205
v 0.100000 0.900000 -0.173205
v 0.100000 0.900000 -0.173205
v 0.100000 0.100000 0.173205
v 0.100000 0.100000 0.173205
v 0.110000 0.900000 0.190525
v 0.110000 0.900000 0.190525
v 0.220000 0.900000 -0.000000
v 0.220000 0.900000 -0.000000
v -0.110000 0.900000 -0.190526
v -0.110000 0.900000 -0.190526
v -0.220000 0.900000 -0.000000
v -0.220000 0.900000 -0.000000
v -0.110000 0.900000 0.190525
v -0.110000 0.900000 0.190525
v 0.110000 0.900000 -0.190526
v 0.110000 0.900000 -0.190526
v 0.110000 1.000000 -0.190526
v 0.220000 1.000000 -0.000000
v -0.110000 1.000000 0.190525
v -0.220000 1.000000 -0.000000
v 0.110000 1.000000 0.190525
v -0.110000 1.000000 -0.190526
v -0.110000 0.100000 0.190526
v -0.110000 0.100000 0.190526
v -0.220000 0.100000 0.000000
v -0.220000 0.100000 0.000000
v 0.220000 0.100000 -0.000000
v 0.220000 0.100000 -0.000000
v 0.110000 0.100000 -0.190526
v 0.110000 0.100000 -0.190526
v -0.110000 0.100000 -0.190526
v -0.110000 0.100000 -0.190526
v 0.110000 0.100000 0.190526
v 0.110000 0.100000 0.190526
v -0.110000 -0.000000 -0.190526
v -0.220000 0.000000 0.000000
v 0.110000 -0.000000 -0.190526
v -0.110000 0.000000 0.190526
v 0.110000 0.000000 0.190526
v 0.220000 -0.000000 -0.000000
vn -0.8660 0.0000 0.5000
vn 0.0000 0.0000 1.0000
vn 0.8660 0.0000 0.5000
vn 0.8660 -0.0000 -0.5000
vn 0.0000 -0.0000 -1.0000
vn -0.8660 -0.0000 -0.5000
vn 0.0000 -1.0000 0.0000
vn 0.0000 1.0000 -0.0000
usemtl None
s 1
f 423//53 427//53 420//53 425//53
f 436//54 414//54 428//54 424//54
f 421//55 415//55 413//55 435//55
f 429//56 434//56 416//56 422//56
f 431//57 418//57 433//57 430//57
f 426//58 419//58 417//58 432//58
f 384//59 385//59 439//59 437//59
f 386//59 387//59 441//59 447//59
f 385//59 386//59 447//59 439//59
f 387//59 388//59 443//59 441//59
f 383//59 384//59 437//59 445//59
f 388//59 383//59 445//59 443//59
f 440//56 448//56 398//56 397//56
f 444//53 446//53 451//53 400//53
f 438//55 391//55 450//55 453//55
f 389//54 390//54 396//54 395//54
f 392//57 442//57 399//57 449//57
f 393//58 394//58 452//58 454//58
f 382//60 381//60 463//60 457//60
f 380//60 379//60 459//60 461//60
f 377//60 382//60 457//60 455//60
f 379//60 378//60 465//60 459//60
f 381//60 380//60 461//60 463//60
f 378//60 377//60 455//60 465//60
f 458//58 464//58 411//58 412//58
f 405//57 462//57 410//57 467//57
f 456//53 406//53 468//53 470//53
f 466//54 401//54 407//54 408//54
f 460//55 402//55 471//55 409//55
f 404//56 403//56 472//56 469//56
