# Blender 3.1.2
# www.blender.org
mtllib Corner.mtl
o Cube
v 3.250000 1.000000 -1.250000
v 3.250000 0.000000 -1.250000
v -0.750000 1.000000 3.750000
v -0.750000 0.000000 3.750000
v 1.250000 1.000000 -3.250000
v 1.250000 0.000000 -3.250000
v -3.750000 1.000000 0.750000
v -3.750000 0.000000 0.750000
v -0.750000 1.000000 4.750000
v -0.750000 0.000000 4.750000
v -4.750000 1.000000 0.750000
v -4.750000 0.000000 0.750000
v 3.250000 1.000000 -2.250000
v 3.250000 0.000000 -2.250000
v 2.250000 1.000000 -3.250000
v 2.250000 0.000000 -3.250000
v -0.750000 5.000000 3.750000
v -3.750000 5.000000 0.750000
v -0.750000 5.000000 4.750000
v -4.750000 5.000000 0.750000
v 3.250000 5.000000 -1.250000
v 1.250000 5.000000 -3.250000
v 3.250000 5.000000 -2.250000
v 2.250000 5.000000 -3.250000
v 0.250000 0.000000 -5.250000
v -4.750000 0.000000 -4.250000
v -4.750000 1.000000 -4.250000
v 0.250000 1.000000 -5.250000
v -5.750000 0.000000 -4.250000
v -5.750000 1.000000 -4.250000
v 1.250000 1.000000 -5.250000
v 1.250000 0.000000 -5.250000
v -4.750000 5.000000 -4.250000
v -5.750000 5.000000 -4.250000
v 1.250000 5.000000 -5.250000
v 0.250000 5.000000 -5.250000
v 5.250000 1.000000 -0.250000
v 5.250000 0.000000 -0.250000
v 4.250000 1.000000 4.750000
v 4.250000 0.000000 4.750000
v 4.250000 1.000000 5.750000
v 4.250000 0.000000 5.750000
v 5.250000 1.000000 -1.250000
v 5.250000 0.000000 -1.250000
v 4.250000 5.000000 5.750000
v 4.250000 5.000000 4.750000
v 5.250000 5.000000 -0.250000
v 5.250000 5.000000 -1.250000
v 9.250000 1.000000 -0.250000
v 9.250000 0.000000 -0.250000
v 9.250000 1.000000 4.750000
v 9.250000 0.000000 4.750000
v 9.250000 1.000000 5.750000
v 9.250000 0.000000 5.750000
v 9.250000 1.000000 -1.250000
v 9.250000 0.000000 -1.250000
v 9.250000 5.000000 5.750000
v 9.250000 5.000000 4.750000
v 9.250000 5.000000 -0.250000
v 9.250000 5.000000 -1.250000
v 0.250000 0.000000 -9.250000
v -4.750000 0.000000 -9.250000
v -4.750000 1.000000 -9.250000
v 0.250000 1.000000 -9.250000
v -5.750000 0.000000 -9.250000
v -5.750000 1.000000 -9.250000
v 1.250000 1.000000 -9.250000
v 1.250000 0.000000 -9.250000
v -4.750000 5.000000 -9.250000
v -5.750000 5.000000 -9.250000
v 1.250000 5.000000 -9.250000
v 0.250000 5.000000 -9.250000
vn -0.0000 -1.0000 -0.0000
vn -0.0000 1.0000 -0.0000
vn -0.1961 -0.0000 0.9806
vn -0.7071 -0.0000 0.7071
vn 0.8944 -0.0000 -0.4472
vn 0.7071 -0.0000 -0.7071
vn 0.1961 -0.0000 -0.9806
vn -0.9806 -0.0000 0.1961
vn 0.4472 -0.0000 -0.8944
vn -1.0000 -0.0000 -0.0000
vn 1.0000 -0.0000 -0.0000
vn -0.8944 -0.0000 0.4472
vn -0.0000 -0.0000 1.0000
vn -0.0000 -0.0000 -1.0000
vn -0.4472 -0.0000 0.8944
vn 0.9806 -0.0000 -0.1961
vt 0.390625 0.734375
vt 0.390625 0.750000
vt 0.218750 0.265625
vt 0.218750 0.281250
vt 0.109375 0.343750
vt 0.656250 0.703125
vt 0.593750 0.734375
vt 0.109375 0.359375
vt 0.234375 0.656250
vt 0.234375 0.671875
vt 0.125000 0.265625
vt 0.125000 0.281250
vt 0.656250 0.578125
vt 0.015625 0.343750
vt 0.593750 0.609375
vt 0.015625 0.359375
vt 0.218750 0.359375
vt 0.390625 0.671875
vt 0.390625 0.656250
vt 0.218750 0.343750
vt 0.109375 0.281250
vt 0.656250 0.734375
vt 0.593750 0.765625
vt 0.109375 0.265625
vt 0.125000 0.359375
vt 0.234375 0.734375
vt 0.125000 0.343750
vt 0.234375 0.750000
vt 0.593750 0.578125
vt 0.015625 0.281250
vt 0.656250 0.546875
vt 0.015625 0.265625
vt 0.156250 0.750000
vt 0.468750 0.734375
vt 0.156250 0.734375
vt 0.406250 0.640625
vt 0.656250 0.593750
vt 0.468750 0.718750
vt 0.593750 0.625000
vt 0.406250 0.625000
vt 0.406250 0.734375
vt 0.468750 0.703125
vt 0.156250 0.671875
vt 0.156250 0.656250
vt 0.593750 0.593750
vt 0.406250 0.718750
vt 0.468750 0.687500
vt 0.656250 0.562500
vt 0.406250 0.828125
vt 0.312500 0.656250
vt 0.312500 0.671875
vt 0.468750 0.859375
vt 0.656250 0.718750
vt 0.406250 0.812500
vt 0.593750 0.750000
vt 0.468750 0.843750
vt 0.312500 0.750000
vt 0.468750 0.828125
vt 0.406250 0.796875
vt 0.312500 0.734375
vt 0.468750 0.812500
vt 0.656250 0.750000
vt 0.406250 0.781250
vt 0.593750 0.781250
vt 0.171875 0.656250
vt 0.515625 0.578125
vt 0.171875 0.671875
vt 0.578125 0.609375
vt 0.578125 0.578125
vt 0.171875 0.734375
vt 0.515625 0.546875
vt 0.171875 0.750000
vt 0.093750 0.750000
vt 0.515625 0.593750
vt 0.093750 0.734375
vt 0.578125 0.625000
vt 0.578125 0.593750
vt 0.093750 0.671875
vt 0.515625 0.562500
vt 0.093750 0.656250
vt 0.328125 0.734375
vt 0.515625 0.750000
vt 0.328125 0.750000
vt 0.578125 0.718750
vt 0.328125 0.671875
vt 0.578125 0.750000
vt 0.515625 0.781250
vt 0.328125 0.656250
vt 0.515625 0.734375
vt 0.250000 0.656250
vt 0.250000 0.671875
vt 0.578125 0.703125
vt 0.250000 0.750000
vt 0.578125 0.734375
vt 0.515625 0.765625
vt 0.250000 0.734375
vt 0.593750 0.796875
vt 0.656250 0.765625
vt 0.109375 0.187500
vt 0.109375 0.203125
vt 0.656250 0.515625
vt 0.593750 0.546875
vt 0.015625 0.187500
vt 0.015625 0.203125
vt 0.125000 0.421875
vt 0.234375 0.828125
vt 0.125000 0.437500
vt 0.234375 0.812500
vt 0.218750 0.421875
vt 0.390625 0.593750
vt 0.218750 0.437500
vt 0.390625 0.578125
vt 0.406250 0.687500
vt 0.656250 0.531250
vt 0.468750 0.656250
vt 0.593750 0.562500
vt 0.406250 0.703125
vt 0.156250 0.578125
vt 0.468750 0.671875
vt 0.156250 0.593750
vt 0.312500 0.812500
vt 0.468750 0.796875
vt 0.312500 0.828125
vt 0.406250 0.765625
vt 0.468750 0.781250
vt 0.593750 0.812500
vt 0.656250 0.781250
vt 0.406250 0.750000
vt 0.578125 0.546875
vt 0.171875 0.828125
vt 0.515625 0.515625
vt 0.171875 0.812500
vt 0.093750 0.578125
vt 0.578125 0.562500
vt 0.093750 0.593750
vt 0.515625 0.531250
vt 0.250000 0.812500
vt 0.578125 0.765625
vt 0.515625 0.796875
vt 0.250000 0.828125
vt 0.578125 0.781250
vt 0.515625 0.812500
vt 0.328125 0.593750
vt 0.328125 0.578125
vt 0.218750 0.187500
vt 0.390625 0.812500
vt 0.218750 0.203125
vt 0.390625 0.828125
vt 0.593750 0.703125
vt 0.656250 0.671875
vt 0.109375 0.421875
vt 0.109375 0.437500
vt 0.234375 0.593750
vt 0.125000 0.187500
vt 0.125000 0.203125
vt 0.234375 0.578125
vt 0.656250 0.609375
vt 0.593750 0.640625
vt 0.015625 0.421875
vt 0.015625 0.437500
vt 0.156250 0.812500
vt 0.156250 0.828125
vt 0.468750 0.640625
vt 0.406250 0.609375
vt 0.656250 0.625000
vt 0.593750 0.656250
vt 0.468750 0.625000
vt 0.406250 0.593750
vt 0.312500 0.593750
vt 0.312500 0.578125
vt 0.406250 0.859375
vt 0.468750 0.890625
vt 0.593750 0.718750
vt 0.656250 0.687500
vt 0.406250 0.843750
vt 0.468750 0.875000
vt 0.093750 0.812500
vt 0.093750 0.828125
vt 0.515625 0.625000
vt 0.578125 0.656250
vt 0.171875 0.593750
vt 0.515625 0.609375
vt 0.578125 0.640625
vt 0.171875 0.578125
vt 0.328125 0.812500
vt 0.515625 0.718750
vt 0.578125 0.687500
vt 0.328125 0.828125
vt 0.250000 0.593750
vt 0.250000 0.578125
vt 0.515625 0.703125
vt 0.578125 0.671875
vt 0.218750 0.125000
vt 0.125000 0.093750
vt 0.078125 0.062500
vt 0.078125 0.609375
vt 0.390625 0.890625
vt 0.593750 0.671875
vt 0.125000 0.109375
vt 0.093750 0.062500
vt 0.109375 0.500000
vt 0.125000 0.125000
vt 0.218750 0.093750
vt 0.078125 0.593750
vt 0.015625 0.078125
vt 0.234375 0.515625
vt 0.656250 0.640625
vt 0.218750 0.109375
vt 0.031250 0.078125
vt 0.015625 0.500000
vt 0.156250 0.890625
vt 0.078125 0.578125
vt 0.015625 0.062500
vt 0.468750 0.609375
vt 0.656250 0.656250
vt 0.031250 0.062500
vt 0.468750 0.593750
vt 0.312500 0.515625
vt 0.078125 0.078125
vt 0.078125 0.625000
vt 0.406250 0.890625
vt 0.593750 0.687500
vt 0.093750 0.078125
vt 0.406250 0.875000
vt 0.093750 0.890625
vt 0.015625 0.578125
vt 0.515625 0.656250
vt 0.015625 0.593750
vt 0.515625 0.640625
vt 0.171875 0.515625
vt 0.015625 0.609375
vt 0.515625 0.687500
vt 0.328125 0.890625
vt 0.250000 0.515625
vt 0.015625 0.625000
vt 0.515625 0.671875
vt 0.656250 0.796875
vt 0.109375 0.109375
vt 0.125000 0.078125
vt 0.109375 0.125000
vt 0.593750 0.515625
vt 0.015625 0.109375
vt 0.062500 0.062500
vt 0.015625 0.125000
vt 0.234375 0.890625
vt 0.015625 0.093750
vt 0.046875 0.062500
vt 0.078125 0.546875
vt 0.125000 0.500000
vt 0.109375 0.093750
vt 0.109375 0.078125
vt 0.078125 0.531250
vt 0.218750 0.500000
vt 0.390625 0.515625
vt 0.593750 0.531250
vt 0.406250 0.656250
vt 0.062500 0.078125
vt 0.156250 0.515625
vt 0.406250 0.671875
vt 0.046875 0.078125
vt 0.078125 0.562500
vt 0.312500 0.890625
vt 0.109375 0.062500
vt 0.078125 0.515625
vt 0.468750 0.765625
vt 0.656250 0.812500
vt 0.125000 0.062500
vt 0.468750 0.750000
vt 0.171875 0.890625
vt 0.015625 0.546875
vt 0.578125 0.515625
vt 0.093750 0.515625
vt 0.015625 0.562500
vt 0.578125 0.531250
vt 0.578125 0.796875
vt 0.250000 0.890625
vt 0.015625 0.515625
vt 0.578125 0.812500
vt 0.015625 0.531250
vt 0.328125 0.515625
s 0
usemtl Material
f 4/13/1 10/37/1 12/45/1 8/29/1
f 5/17/2 28/109/2 27/105/2 7/25/2
f 2/5/1 4/14/1 8/30/1 6/21/1
f 9/33/3 41/161/3 45/177/3 19/73/3
f 1/1/4 21/81/4 22/85/4 5/18/4
f 9/34/4 11/41/4 12/46/4 10/38/4
f 4/15/1 40/157/1 42/165/1 10/39/1
f 14/53/1 44/173/1 38/149/1 2/6/1
f 15/57/5 31/121/5 35/137/5 24/93/5
f 15/58/6 13/49/6 14/54/6 16/61/6
f 17/65/7 46/181/7 39/153/7 3/9/7
f 11/42/8 30/117/8 29/113/8 12/47/8
f 6/22/1 16/62/1 14/55/1 2/7/1
f 18/69/2 20/77/2 19/74/2 17/66/2
f 7/26/6 18/70/6 17/67/6 3/10/6
f 16/63/5 32/125/5 31/122/5 15/59/5
f 9/35/4 19/75/4 20/78/4 11/43/4
f 21/82/2 23/89/2 24/94/2 22/86/2
f 23/90/9 48/189/9 43/169/9 13/50/9
f 24/95/2 35/138/2 36/141/2 22/87/2
f 15/60/6 24/96/6 23/91/6 13/51/6
f 35/139/2 71/275/2 72/278/2 36/142/2
f 25/97/1 61/237/1 68/266/1 32/126/1
f 34/133/10 70/272/10 66/258/10 30/118/10
f 29/114/1 65/255/1 62/241/1 26/101/1
f 31/123/11 67/262/11 71/276/11 35/140/11
f 18/71/2 33/129/2 34/134/2 20/79/2
f 6/23/1 25/98/1 32/127/1 16/64/1
f 27/106/11 63/245/11 69/269/11 33/130/11
f 30/119/10 66/259/10 65/256/10 29/115/10
f 12/48/1 29/116/1 26/102/1 8/31/1
f 22/88/12 36/143/12 28/110/12 5/19/12
f 20/80/8 34/135/8 30/120/8 11/44/8
f 44/174/1 56/222/1 50/198/1 38/150/1
f 39/154/2 51/202/2 49/193/2 37/145/2
f 41/162/13 53/211/13 57/225/13 45/178/13
f 40/158/1 52/207/1 54/215/1 42/166/1
f 48/190/14 60/234/14 55/218/14 43/170/14
f 1/2/15 37/146/15 47/185/15 21/83/15
f 10/40/3 42/167/3 41/163/3 9/36/3
f 3/11/2 39/155/2 37/147/2 1/3/2
f 19/76/2 45/179/2 46/182/2 17/68/2
f 21/84/2 47/186/2 48/191/2 23/92/2
f 13/52/9 43/171/9 44/175/9 14/56/9
f 2/8/1 38/151/1 40/159/1 4/16/1
f 49/194/11 51/203/11 52/208/11 50/199/11
f 51/204/11 58/228/11 57/226/11 53/212/11
f 51/205/11 53/213/11 54/216/11 52/209/11
f 50/200/11 56/223/11 55/219/11 49/195/11
f 55/220/11 60/235/11 59/231/11 49/196/11
f 47/187/2 59/232/2 60/236/2 48/192/2
f 38/152/1 50/201/1 52/210/1 40/160/1
f 45/180/2 57/227/2 58/229/2 46/183/2
f 43/172/14 55/221/14 56/224/14 44/176/14
f 37/148/13 49/197/13 59/233/13 47/188/13
f 42/168/13 54/217/13 53/214/13 41/164/13
f 46/184/14 58/230/14 51/206/14 39/156/14
f 5/20/2 7/27/2 3/12/2 1/4/2
f 63/246/14 64/250/14 61/238/14 62/242/14
f 62/243/14 65/257/14 66/260/14 63/247/14
f 64/251/14 67/263/14 68/267/14 61/239/14
f 66/261/14 70/273/14 69/270/14 63/248/14
f 64/252/14 72/279/14 71/277/14 67/264/14
f 28/111/2 64/253/2 63/249/2 27/107/2
f 33/131/2 69/271/2 70/274/2 34/136/2
f 26/103/1 62/244/1 61/240/1 25/99/1
f 32/128/11 68/268/11 67/265/11 31/124/11
f 36/144/10 72/280/10 64/254/10 28/112/10
f 8/32/1 26/104/1 25/100/1 6/24/1
f 7/28/16 27/108/16 33/132/16 18/72/16
