# Blender 3.1.2
# www.blender.org
mtllib Cube.mtl
o Cube
v 1.000000 1.000000 -1.000000
v 1.000000 -1.000000 -1.000000
v 1.000000 1.000000 1.000000
v 1.000000 -1.000000 1.000000
v -1.000000 1.000000 -1.000000
v -1.000000 -1.000000 -1.000000
v -1.000000 1.000000 1.000000
v -1.000000 -1.000000 1.000000
vn -0.0000 1.0000 -0.0000
vn -0.0000 -0.0000 1.0000
vn -1.0000 -0.0000 -0.0000
vn -0.0000 -1.0000 -0.0000
vn 1.0000 -0.0000 -0.0000
vn -0.0000 -0.0000 -1.0000
vt 0.684524 0.017857
vt 0.648810 0.648810
vt 0.017857 0.982143
vt 0.648810 0.017857
vt 0.648810 0.351191
vt 0.017857 0.684524
vt 0.684524 0.315476
vt 0.315476 0.315476
vt 0.351191 0.648810
vt 0.315476 0.017857
vt 0.648810 0.315476
vt 0.351191 0.351191
vt 0.982143 0.017857
vt 0.017857 0.648810
vt 0.315476 0.982143
vt 0.017857 0.351191
vt 0.351191 0.017857
vt 0.315476 0.684524
vt 0.982143 0.315476
vt 0.017857 0.315476
vt 0.315476 0.648810
vt 0.017857 0.017857
vt 0.315476 0.351191
vt 0.351191 0.315476
s 0
usemtl Material
f 1/1/1 5/13/1 7/19/1 3/7/1
f 4/10/2 3/8/2 7/20/2 8/22/2
f 8/23/3 7/21/3 5/14/3 6/16/3
f 6/17/4 2/4/4 4/11/4 8/24/4
f 2/5/5 1/2/5 3/9/5 4/12/5
f 6/18/6 5/15/6 1/3/6 2/6/6
