# Blender 3.1.2
# www.blender.org
mtllib Room.mtl
o Cube
v 5.000000 1.000000 -3.000000
v 5.000000 0.000000 -3.000000
v 5.000000 1.000000 3.000000
v 5.000000 0.000000 3.000000
v -5.000000 1.000000 -3.000000
v -5.000000 0.000000 -3.000000
v -5.000000 1.000000 3.000000
v -5.000000 0.000000 3.000000
v 5.000000 1.000000 -4.000000
v 5.000000 0.000000 -4.000000
v -5.000000 1.000000 -4.000000
v -5.000000 0.000000 -4.000000
v 5.000000 1.000000 4.000000
v 5.000000 0.000000 4.000000
v -5.000000 1.000000 4.000000
v -5.000000 0.000000 4.000000
v -6.000000 1.000000 -3.000000
v -6.000000 0.000000 -3.000000
v -6.000000 1.000000 3.000000
v -6.000000 0.000000 3.000000
v -6.000000 1.000000 -4.000000
v -6.000000 0.000000 -4.000000
v -6.000000 1.000000 4.000000
v -6.000000 0.000000 4.000000
v 6.000000 1.000000 -3.000000
v 6.000000 0.000000 -3.000000
v 6.000000 1.000000 3.000000
v 6.000000 0.000000 3.000000
v 6.000000 1.000000 -4.000000
v 6.000000 0.000000 -4.000000
v 6.000000 1.000000 4.000000
v 6.000000 0.000000 4.000000
v 5.000000 5.000000 3.000000
v -5.000000 5.000000 3.000000
v 5.000000 5.000000 4.000000
v -5.000000 5.000000 4.000000
v -6.000000 5.000000 3.000000
v -6.000000 5.000000 4.000000
v 6.000000 5.000000 3.000000
v 6.000000 5.000000 4.000000
v 5.000000 5.000000 -3.000000
v -5.000000 5.000000 -3.000000
v 5.000000 5.000000 -4.000000
v -5.000000 5.000000 -4.000000
v -6.000000 5.000000 -3.000000
v -6.000000 5.000000 -4.000000
v 6.000000 5.000000 -3.000000
v 6.000000 5.000000 -4.000000
vn 0.5773 0.5774 0.5774
vn -0.5774 0.5774 -0.5773
vn -0.5773 0.5774 0.5774
vn -0.7071 -0.0000 -0.7071
vn -0.0002 0.7071 -0.7071
vn -0.0000 -0.0000 -1.0000
vn -0.0000 -1.0000 -0.0000
vn 0.7071 -0.7071 -0.0002
vn -0.0000 -0.0000 1.0000
vn -0.5774 -0.5773 0.5774
vn -0.0002 -0.7071 0.7071
vn -0.0000 -0.7071 -0.7071
vn 0.0002 -0.7071 -0.7071
vn -0.0003 -0.7071 -0.7071
vn -1.0000 -0.0000 -0.0000
vn -0.5774 0.5773 -0.5774
vn -0.7071 0.0002 -0.7071
vn 0.5773 -0.5773 -0.5774
vn -0.0000 -0.7071 0.7071
vn 0.0003 -0.7071 0.7071
vn 0.5773 -0.5774 0.5773
vn 0.0002 -0.7071 0.7071
vn -0.7071 -0.7071 -0.0000
vn -0.7071 -0.0002 0.7071
vn -0.7071 -0.7071 -0.0002
vn -0.5774 -0.5773 -0.5774
vn -0.7071 -0.0000 0.7071
vn -0.7071 0.7071 0.0002
vn -0.7071 -0.0002 -0.7071
vn -0.5774 -0.5774 -0.5773
vn -0.0002 -0.7071 -0.7071
vn -0.7071 -0.7071 0.0002
vn 1.0000 -0.0000 -0.0000
vn 0.7071 -0.7071 -0.0000
vn 0.7071 -0.7071 0.0002
vn 0.7071 -0.0002 -0.7071
vn 0.5774 -0.5773 0.5773
vn 0.7071 -0.0000 0.7071
vn 0.0002 0.7071 0.7071
vn 0.7071 -0.0002 0.7071
vn -0.0003 0.7071 -0.7071
vn 0.3015 0.9045 -0.3015
vn -0.0003 0.7071 0.7071
vn -0.3015 0.9045 -0.3015
vn -0.5774 0.5774 0.5773
vn -0.0002 0.7071 0.7071
vn -0.0000 0.7071 0.7071
vn 0.7071 0.7071 0.0002
vn 0.0003 0.7071 0.7071
vn 0.5774 0.5773 0.5774
vn 0.7071 0.0002 0.7071
vn -0.5774 0.5773 0.5774
vn -0.7071 0.0002 0.7071
vn 0.5773 0.5774 -0.5774
vn -0.3016 0.9045 -0.3015
vn -0.5773 0.5774 -0.5774
vn -0.0000 0.7071 -0.7071
vn -0.7071 0.7071 -0.0002
vn 0.3015 0.9045 0.3015
vn -0.3015 0.9045 0.3015
vn 0.0003 0.7071 -0.7071
vn 0.5773 0.5774 -0.5773
vn 0.0002 0.7071 -0.7071
vn 0.5774 0.5773 -0.5774
vn 0.7071 0.0002 -0.7071
vn 0.3016 0.9045 0.3015
vn 0.7071 -0.0000 -0.7071
vn 0.7071 0.7071 -0.0002
vn 0.7071 0.7071 0.0001
vn -0.3015 0.9045 -0.3016
vn 0.5774 0.5774 -0.5773
vn 0.3015 0.9045 0.3016
vn -0.7071 0.7071 -0.0000
vn 0.5774 0.5774 0.5773
vn -0.0001 -0.7071 -0.7071
vn 0.5774 -0.5773 -0.5774
vn 0.0001 -0.7071 0.7071
vn 0.5774 -0.5774 0.5773
vn -0.7071 0.7071 0.0003
vn -0.5774 -0.5774 0.5773
vn 0.5774 -0.5773 0.5774
vn 0.5774 -0.5774 -0.5773
vn 0.7071 0.7071 -0.0000
vn 0.7071 0.7071 -0.0003
vn -0.3015 0.9046 -0.3015
vn 0.3015 0.9046 0.3015
vt 0.408189 0.438793
vt 0.748416 0.744830
vt 0.346982 0.792528
vt 0.425095 0.353107
vt 0.378999 0.843557
vt 0.238075 0.360490
vt 0.966932 0.889636
vt 0.578302 0.438793
vt 0.224567 0.438793
vt 0.346982 0.976151
vt 0.783310 0.889636
vt 0.054453 0.360490
vt 0.403053 0.354708
vt 0.407576 0.791127
vt 0.748416 0.438793
vt 0.408189 0.744830
vt 0.895153 0.859576
vt 0.238075 0.054453
vt 0.967954 0.965790
vt 0.425095 0.047071
vt 0.377642 0.924015
vt 0.224567 0.744830
vt 0.578302 0.744830
vt 0.895153 0.675954
vt 0.403053 0.048672
vt 0.744883 0.817149
vt 0.054453 0.054453
vt 0.784332 0.965790
vt 0.146264 0.469397
vt 0.522770 0.045479
vt 0.421525 0.872689
vt 0.140405 0.969397
vt 0.452129 0.872689
vt 0.553373 0.045479
vt 0.455699 0.353107
vt 0.409602 0.843557
vt 0.139940 0.893522
vt 0.418725 0.791058
vt 0.522770 0.351516
vt 0.146264 0.775433
vt 0.553373 0.351516
vt 0.408246 0.924015
vt 0.455699 0.047071
vt 0.449329 0.791058
vt 0.139090 0.800131
vt 0.668821 0.844865
vt 0.468984 0.352339
vt 0.731321 0.360490
vt 0.499588 0.352339
vt 0.376972 0.791127
vt 0.372449 0.354708
vt 0.699425 0.844865
vt 0.731321 0.054453
vt 0.715696 0.929453
vt 0.468984 0.046302
vt 0.139756 0.876866
vt 0.746300 0.929453
vt 0.499588 0.046302
vt 0.372449 0.048672
vt 0.714279 0.817149
vt 0.897613 0.441098
vt 0.935755 0.479240
vt 0.716382 0.878576
vt 0.895153 0.468166
vt 0.746985 0.878576
vt 0.966359 0.479240
vt 0.377642 0.893411
vt 0.967954 0.935186
vt 0.665848 0.787885
vt 0.897798 0.363161
vt 0.935755 0.662862
vt 0.895153 0.651788
vt 0.966359 0.662862
vt 0.696452 0.787885
vt 0.744883 0.786545
vt 0.784332 0.935186
vt 0.897613 0.410494
vt 0.139940 0.924126
vt 0.716382 0.847972
vt 0.418725 0.821662
vt 0.746985 0.847972
vt 0.449329 0.821662
vt 0.408246 0.893411
vt 0.139756 0.846263
vt 0.715696 0.898849
vt 0.665848 0.818489
vt 0.897798 0.393765
vt 0.746300 0.898849
vt 0.696452 0.818489
vt 0.714279 0.786545
vt 0.619418 0.898632
vt 0.897071 0.274497
vt 0.896357 0.236845
vt 0.949616 0.236122
vt 0.980220 0.236122
vt 0.966932 0.920240
vt 0.650022 0.898632
vt 0.378999 0.874161
vt 0.949616 0.052500
vt 0.666413 0.929453
vt 0.897492 0.349277
vt 0.896357 0.053223
vt 0.697017 0.929453
vt 0.783310 0.920240
vt 0.407576 0.821731
vt 0.980220 0.052500
vt 0.140405 0.938793
vt 0.421525 0.842085
vt 0.619418 0.929236
vt 0.897071 0.305101
vt 0.452129 0.842085
vt 0.650022 0.929236
vt 0.409602 0.874161
vt 0.897492 0.318673
vt 0.666413 0.898849
vt 0.139090 0.830734
vt 0.668821 0.875469
vt 0.376972 0.821731
vt 0.697017 0.898849
vt 0.699425 0.875469
vt 0.297414 0.046817
vt 0.471982 0.929453
vt 0.455888 0.438793
vt 0.464797 0.806471
vt 0.224567 0.976151
vt 0.772738 0.675954
vt 0.297414 0.352854
vt 0.555693 0.899355
vt 0.455888 0.744830
vt 0.464797 0.831257
vt 0.016676 0.800131
vt 0.266810 0.046817
vt 0.441378 0.929453
vt 0.608906 0.360490
vt 0.525089 0.899355
vt 0.266810 0.352854
vt 0.608906 0.054453
vt 0.017342 0.876866
vt 0.464797 0.861861
vt 0.772738 0.651788
vt 0.775383 0.363161
vt 0.555693 0.929959
vt 0.775383 0.393765
vt 0.525089 0.929959
vt 0.017342 0.846263
vt 0.471982 0.898849
vt 0.775077 0.349277
vt 0.773942 0.053223
vt 0.464797 0.775867
vt 0.016676 0.830734
vt 0.441378 0.898849
vt 0.775077 0.318673
vt 0.648419 0.806471
vt 0.224567 0.792528
vt 0.324786 0.046817
vt 0.483729 0.929453
vt 0.626001 0.744830
vt 0.567439 0.899355
vt 0.324786 0.352854
vt 0.626001 0.438793
vt 0.772738 0.859576
vt 0.648419 0.831257
vt 0.514333 0.929453
vt 0.023849 0.469397
vt 0.355389 0.046817
vt 0.017990 0.969397
vt 0.017526 0.893522
vt 0.023849 0.775433
vt 0.598043 0.899355
vt 0.355389 0.352854
vt 0.775199 0.441098
vt 0.567439 0.929959
vt 0.648419 0.861861
vt 0.772738 0.468166
vt 0.017526 0.924126
vt 0.775199 0.410494
vt 0.598043 0.929959
vt 0.483729 0.898849
vt 0.774656 0.274497
vt 0.773942 0.236845
vt 0.648419 0.775867
vt 0.514333 0.898849
vt 0.017990 0.938793
vt 0.774656 0.305101
s 0
usemtl Material
f 5/16/1 3/9/2 1/1/3
f 21/78/4 44/167/5 11/37/6
f 2/6/7 8/27/7 6/18/7
f 2/7/7 28/104/8 4/11/7
f 15/54/9 24/88/10 16/57/11
f 11/39/6 10/34/12 12/41/13
f 6/20/7 10/35/14 2/4/7
f 17/61/15 46/176/16 21/77/17
f 9/31/6 30/111/18 10/33/13
f 13/47/9 16/58/19 14/49/11
f 4/13/7 16/59/20 8/25/7
f 4/14/7 32/118/21 14/50/22
f 20/74/23 23/86/24 19/69/15
f 19/71/15 18/66/23 20/73/25
f 17/63/15 22/81/26 18/65/25
f 23/87/27 37/141/28 19/70/15
f 12/44/12 21/80/29 11/38/6
f 6/21/7 22/83/30 12/42/31
f 16/60/19 20/75/32 8/26/7
f 8/28/7 18/68/32 6/19/7
f 25/94/33 28/106/34 26/95/35
f 26/97/34 29/109/36 25/91/33
f 27/100/33 32/119/37 28/103/35
f 10/36/12 26/98/8 2/5/7
f 31/116/38 35/131/39 13/45/9
f 14/52/19 31/117/40 13/46/9
f 11/40/6 43/164/41 9/29/6
f 34/127/42 35/132/43 33/121/44
f 34/128/42 38/144/45 36/135/46
f 35/133/47 39/146/48 33/122/44
f 13/48/9 36/137/49 15/53/9
f 27/101/33 40/152/50 31/114/51
f 15/56/9 38/145/52 23/84/53
f 7/23/54 33/123/55 3/8/56
f 44/169/57 45/172/58 42/158/59
f 41/155/60 44/170/61 42/159/59
f 41/156/60 48/182/62 43/163/63
f 9/32/6 48/183/64 29/107/65
f 1/2/3 42/160/66 5/15/1
f 29/110/67 47/179/68 25/92/33
f 47/180/69 27/102/33 25/93/33
f 33/124/44 47/181/48 41/153/60
f 1/3/45 33/125/70 41/154/60
f 7/24/71 42/161/72 34/126/42
f 34/130/42 45/173/73 37/139/58
f 45/174/28 19/72/15 37/140/73
f 5/16/74 7/22/54 3/9/56
f 21/78/4 46/175/56 44/167/41
f 2/6/7 4/12/7 8/27/7
f 2/7/7 26/96/34 28/104/8
f 15/54/9 23/85/27 24/88/10
f 11/39/6 9/30/6 10/34/75
f 6/20/7 12/43/12 10/35/31
f 17/61/15 45/171/73 46/176/16
f 9/31/6 29/108/67 30/111/76
f 13/47/9 15/55/9 16/58/77
f 4/13/7 14/51/19 16/59/22
f 4/14/7 28/105/34 32/118/78
f 20/74/23 24/89/10 23/86/24
f 19/71/15 17/62/15 18/66/23
f 17/63/15 21/79/4 22/81/26
f 23/87/27 38/143/45 37/141/79
f 12/44/12 22/82/26 21/80/29
f 6/21/7 18/67/23 22/83/30
f 16/60/19 24/90/80 20/75/32
f 8/28/7 20/76/23 18/68/32
f 25/94/33 27/99/33 28/106/34
f 26/97/34 30/112/76 29/109/36
f 27/100/33 31/115/38 32/119/81
f 10/36/12 30/113/82 26/98/8
f 31/116/38 40/150/1 35/131/49
f 14/52/19 32/120/81 31/117/40
f 11/40/6 44/168/57 43/164/5
f 34/127/42 36/136/47 35/132/46
f 34/128/42 37/142/73 38/144/45
f 35/133/47 40/151/74 39/146/48
f 13/48/9 35/134/47 36/137/39
f 27/101/33 39/147/83 40/152/50
f 15/56/9 36/138/47 38/145/52
f 7/23/64 34/129/42 33/123/44
f 44/169/57 46/177/2 45/172/58
f 41/155/60 43/165/57 44/170/63
f 41/156/60 47/178/83 48/182/71
f 9/32/6 43/166/57 48/183/64
f 1/2/52 41/157/60 42/160/59
f 29/110/67 48/184/71 47/179/84
f 47/180/69 39/148/68 27/102/33
f 33/124/44 39/149/83 47/181/48
f 1/3/45 3/10/16 33/125/85
f 7/24/71 5/17/50 42/161/86
f 34/130/42 42/162/59 45/173/73
f 45/174/28 17/64/15 19/72/15
